<?xml version="1.0" standalone="no"?>
<!DOCTYPE svg PUBLIC "-//W3C//DTD SVG 20010904//EN"
 "http://www.w3.org/TR/2001/REC-SVG-20010904/DTD/svg10.dtd">
<svg version="1.0" xmlns="http://www.w3.org/2000/svg"
 width="640.000000pt" height="640.000000pt" viewBox="0 0 640.000000 640.000000"
 preserveAspectRatio="xMidYMid meet">
<metadata>
Created by potrace 1.11, written by Peter Selinger 2001-2013
</metadata>
<g transform="translate(0.000000,640.000000) scale(0.100000,-0.100000)"
fill="#000000" stroke="none">
<path d="M31 4969 l-31 -31 0 -1738 0 -1738 31 -31 31 -31 2349 0 2349 0 0 30
c0 23 4 30 20 30 16 0 20 -7 20 -30 l0 -30 769 0 769 0 31 31 31 31 0 1738 0
1738 -31 31 -31 31 -769 0 -769 0 0 -30 c0 -23 -4 -30 -20 -30 -16 0 -20 7
-20 30 l0 30 -2349 0 -2349 0 -31 -31z"/>
</g>
</svg>
